<?xml version="1.0" encoding="UTF-8" standalone="no"?>
<svg width="1021px" height="200px" viewBox="0 0 1021 200" version="1.1" xmlns="http://www.w3.org/2000/svg" xmlns:xlink="http://www.w3.org/1999/xlink">
    <!-- Generator: Sketch 3.7.2 (28276) - http://www.bohemiancoding.com/sketch -->
    <title>Group 50</title>
    <desc>Created with Sketch.</desc>
    <defs></defs>
    <g id="Page-1" stroke="none" stroke-width="1" fill="none" fill-rule="evenodd">
        <g id="Group-50" transform="translate(511.000000, 100.000000) rotate(-90.000000) translate(-511.000000, -100.000000) translate(411.000000, -411.000000)">
            <g id="Group" transform="translate(-0.000000, -0.000000)">
                <path d="M145.961646,100.294937 C158.40962,87.8670886 164.633544,71.5844937 164.633544,55.2891139 C164.633544,42.0386709 160.502152,28.8217089 152.317278,17.6509494 L152.193544,18.6722785 L150.848671,18.5077215 L151.409937,14.0063924 L155.908797,14.5731013 L155.746709,15.9100633 L154.511519,15.7589241 C163.168038,27.4793038 167.527975,41.3768987 167.527975,55.2891139 C167.527975,72.3126582 161.010949,89.3521519 148.012152,102.337532 L192.368418,146.560949 L188.280253,150.649747 L141.872911,104.381266 L145.961646,100.294937" id="Fill-1" fill="#74C7E5"></path>
                <path d="M102.474937,51.4398101 L146.910443,6.98481013 L150.998608,11.0723418 L104.561392,57.5370253 L101.030127,54.0149367 L101.025253,54.0179747 C88.6011392,41.5883544 72.321519,35.3594937 56.0157595,35.3594937 C42.7768987,35.3594937 29.5617722,39.4824051 18.3837342,47.665443 L19.4025949,47.7927848 L19.2411392,49.1321519 L14.7398101,48.5721519 L15.3046835,44.0738608 L16.6397468,44.2377848 L16.4886709,45.4741772 C28.2120886,36.8225316 42.1096835,32.4717722 56.0157595,32.4717722 C72.8005063,32.4662658 89.5644937,38.8322152 102.474937,51.4398101" id="Fill-3" fill="#74C7E5"></path>
                <path d="M54.3997468,99.4881646 L54.4143671,99.5027848 C41.9609494,111.965316 35.753481,128.282658 35.753481,144.614051 C35.753481,157.891329 39.9287975,171.138734 48.1874051,182.327089 L48.3250633,181.203481 L49.6650633,181.371013 L49.1075316,185.866899 L44.6067722,185.303797 L44.7713291,183.96443 L45.9089873,184.108861 C37.2549367,172.396456 32.8589873,158.514051 32.8589873,144.614051 C32.8589873,127.609937 39.3285443,110.605886 52.2426582,97.6009494 L7.71879747,53.076519 L11.8094304,48.9871519 L58.3551266,95.5340506 L54.3997468,99.4881646" id="Fill-4" fill="#74C7E5"></path>
                <path d="M99.1271519,145.996646 L99.1466456,145.974114 C111.603734,158.426962 127.90462,164.641139 144.212215,164.641139 C157.439494,164.641139 170.634494,160.506646 181.794873,152.330949 L180.766899,152.20481 L180.938101,150.865443 L185.433354,151.422405 L184.873924,155.923671 L183.531519,155.76038 L183.683291,154.525823 C171.974494,163.168924 158.104304,167.531329 144.212215,167.531329 C127.425063,167.537405 110.643354,161.187342 97.7128481,148.563291 L53.2639241,193.007911 L49.1812658,188.918544 L95.6160127,142.486203 L99.1271519,145.996646" id="Fill-5" fill="#74C7E5"></path>
                <path d="M132.72519,67.9313924 C132.736772,50.3435443 125.625,34.4247468 114.103924,22.9048734 C104.736266,13.5341772 92.4681013,7.11335443 78.7794937,4.99892405 L79.4138608,5.81303797 L78.3481013,6.64234177 L75.5627215,3.06417722 L79.1432911,0.281265823 L79.9708228,1.34702532 L78.9915823,2.10873418 C93.4016456,4.28050633 106.310823,11.0224051 116.145253,20.8598734 C128.186139,32.8976582 135.627595,49.5550633 135.619051,67.9283544 L198.251139,67.8327215 L198.251139,73.6148734 L132.722152,73.7117722 L132.72519,67.9313924" id="Fill-6" fill="#005394"></path>
                <path d="M67.4277848,64.1357595 L67.4137975,1.28183544 L73.1941139,1.27879747 L73.2167089,66.9747468 L68.2248734,66.9777848 L68.2248734,66.9832278 C50.6522152,66.9801899 34.7364557,74.086519 23.2062025,85.6161392 C13.8428481,94.979557 7.41594937,107.23981 5.2978481,120.928987 L6.11253165,120.297658 L6.94126582,121.359177 L3.36373418,124.145759 L0.578987342,120.568228 L1.64474684,119.739494 L2.40398734,120.721203 C4.58120253,106.312342 11.3298101,93.4086076 21.1642405,83.5741772 C33.0272152,71.704557 49.3872152,64.3496203 67.4277848,64.1357595" id="Fill-7" fill="#005394"></path>
                <path d="M67.4077215,132.107025 L67.4302532,132.107025 C67.44,149.724747 74.5828481,165.652658 86.1301899,177.199367 C95.5203797,186.588354 107.843987,193.003671 121.591076,195.079114 L120.892152,194.184557 L121.963354,193.35038 L124.743861,196.926076 L121.163291,199.713291 L120.333987,198.651139 L121.238228,197.945506 C106.838544,195.787785 93.916519,189.073291 84.0863924,179.243797 C72.0625949,167.217532 64.6101266,150.623544 64.5498101,132.294051 L1.58196203,132.297152 L1.58196203,126.513101 L67.4077215,126.510063 L67.4077215,132.107025" id="Fill-8" fill="#005394"></path>
                <path d="M131.921456,133.364114 L131.921456,133.335443 C149.537975,133.331203 165.450696,126.202975 176.983418,114.667215 C186.341266,105.31481 192.744367,93.0637342 194.856392,79.3909494 L194.045949,80.0246835 L193.212975,78.9589241 L196.785633,76.1748101 L199.572215,79.7529114 L198.505253,80.5846835 L197.744747,79.6060759 C195.578481,93.9972152 188.850633,106.891203 179.028418,116.712848 C167.162405,128.587975 150.806076,135.963608 132.735,136.181139 L132.733165,199.035696 L126.95462,199.035696 L126.957658,133.364114 L131.921456,133.364114" id="Fill-9" fill="#005394"></path>
            </g>
            <g id="Group" transform="translate(44.000000, 265.000000)" fill="#005394">
                <polyline id="Fill-10" points="22.4159088 37.486573 74.0771394 10.0185265 22.4159088 10.8987903 22.4159088 0.140513938 89.7887414 0.140513938 89.7887414 13.1450035 38.4386847 40.5130657 89.7887414 39.7406577 89.7887414 50.1845781 22.4159088 50.1845781 22.4159088 37.486573"></polyline>
                <path d="M22.4159088,65.6350821 L71.6036586,65.6350821 L72.2888106,76.1965719 L22.4159088,76.1965719 L22.4159088,65.6350821 L22.4159088,65.6350821 Z M79.2272515,70.9238659 C79.2272515,67.1023558 82.2843927,63.9773861 86.1559788,63.9773861 C90.0000985,63.9773861 93.0684606,67.20234 93.0684606,71.0238502 C93.0684606,74.9115142 90.0952259,77.9525774 86.2333535,77.9525774 C82.384377,77.9525774 79.2272515,74.825933 79.2272515,70.9238659 L79.2272515,70.9238659 Z" id="Fill-11"></path>
                <path d="M66.2582673,109.040491 C66.2582673,102.292472 60.4179788,99.3594321 53.8989024,98.8708991 L53.8989024,118.515217 C60.6147653,118.615201 66.2582673,116.077241 66.2582673,109.040491 M46.5687308,129.073692 L46.5687308,98.777279 C37.7615717,98.777279 30.7392243,101.70228 30.7392243,112.255731 C30.7392243,116.756196 32.0212675,121.453113 34.6881852,125.566538 C33.0999925,125.947047 28.7591334,127.412814 27.1774723,127.893308 C23.7992761,122.722261 22.4159088,116.664251 22.4159088,110.695005 C22.4159088,94.7655139 32.7064195,87.622415 48.1425204,87.622415 C61.9949504,87.622415 73.9835192,94.6769181 73.9835192,109.337262 C73.9835192,124.084693 63.675256,129.263947 50.0306659,129.263947 C48.8390608,129.263947 47.6554947,129.172001 46.5687308,129.073692" id="Fill-12"></path>
                <path d="M65.1683212,161.22576 C65.1683212,150.764254 54.579365,149.885498 47.7651927,149.885498 L34.1045248,149.885498 C32.1244338,152.429989 31.0294635,155.653268 31.1327973,158.879729 C31.2440027,168.360987 39.1466137,170.615072 48.7665429,170.615072 C56.366019,170.615072 65.1683212,169.438037 65.1683212,161.22576 M22.827067,159.766525 C22.827067,156.141801 23.804133,152.82172 25.3020551,149.693568 C21.5403345,149.693568 17.7655507,149.780656 13.727994,149.780656 L1.85230531,149.780656 L1.25407434,139.527158 C19.4634414,139.527158 37.5728241,139.423992 55.775827,139.423992 L61.9983,139.423992 C67.8449527,139.423992 71.8002777,138.840164 72.7935889,138.746712 C73.0757892,142.069975 73.2806146,145.391564 73.5723611,148.716502 C73.1935261,148.809955 70.8183549,149.213074 66.2631241,149.298488 C71.1101013,152.325148 74.0819962,157.313979 74.0819962,163.573632 C74.0819962,177.455203 61.7080608,181.757207 49.9338637,181.757207 C35.1832498,181.757207 22.827067,175.105823 22.827067,159.766525" id="Fill-13"></path>
                <path d="M66.2711631,211.076387 C66.2711631,204.328201 60.4245104,201.404874 53.9069414,200.914667 L53.9069414,220.559152 C60.6211294,220.6655 66.2711631,218.121176 66.2711631,211.076387 M46.5767697,231.125498 L46.5767697,200.814682 C37.7696106,200.814682 30.745756,203.747722 30.745756,214.309212 C30.745756,218.791925 32.0276316,223.492192 34.6962241,227.603941 C33.1080314,227.99249 28.7673398,229.448542 27.1855113,229.940425 C23.807315,224.759497 22.422273,218.709693 22.422273,212.746811 C22.422273,196.801242 32.7146259,189.675896 48.1505593,189.675896 C62.0031569,189.675896 73.9915582,196.712647 73.9915582,211.381029 C73.9915582,226.1365 63.6816201,231.307714 50.0370301,231.307714 C48.8470998,231.307714 47.6635336,231.215769 46.5767697,231.125498" id="Fill-14"></path>
                <path d="M22.422273,256.92312 C22.422273,253.012847 22.7222259,249.78806 24.5942936,247.640157 C26.9806858,244.895864 31.934179,243.830035 41.3298553,243.830035 L56.2692168,243.830035 C54.9727706,241.583822 53.5860538,239.424697 52.312217,237.18669 L60.9113686,237.18669 C62.2094896,239.424697 63.49304,241.583822 64.7749157,243.830035 L84.2822363,243.830035 C89.9064783,243.830035 93.5635252,243.239843 94.4648912,243.139859 C94.6568208,246.669455 94.9567737,249.986354 95.2630907,253.50138 C94.5665502,253.598182 90.8884011,254.08839 84.2822363,254.08839 L70.8103159,254.08839 C72.187319,256.631206 73.6740201,259.077221 75.0655938,261.523403 C71.903444,261.329966 69.6299319,261.225125 66.4630927,261.028338 C65.0700117,258.688672 63.6961907,256.43442 62.304617,254.08839 L36.5811876,254.08839 C30.7521201,254.08839 29.6541352,255.555663 29.4670624,258.390394 C26.9806858,257.901861 24.7039916,257.421367 22.422273,256.92312" id="Fill-15"></path>
                <path d="M22.422273,299.148312 L54.7583989,299.148312 C60.0019637,299.148312 63.8638361,296.61186 63.8638361,292.503293 C63.8638361,288.498059 60.6953221,284.402388 56.256321,282.140097 C54.6728177,281.358142 52.8782923,280.877648 51.2125573,280.571164 L22.422273,280.571164 L22.422273,270.120879 L60.6953221,270.120879 C65.5505058,270.120879 69.0172978,269.351821 71.2842783,269.243798 C71.5842312,272.567061 72.077621,275.890325 72.3839381,279.221627 C71.2842783,279.221627 69.8121478,279.403843 68.3286288,279.513541 C67.0306752,279.602137 65.7504743,279.702121 64.5603765,279.795574 C69.5121949,283.605863 72.8790027,289.076863 72.8790027,295.633119 C72.8790027,304.919265 67.2274617,309.61635 58.4266668,309.61635 L22.422273,309.61635 L22.422273,299.148312" id="Fill-16"></path>
                <path d="M65.6729321,343.139056 C65.6729321,334.63185 58.0444823,331.898779 49.0487431,331.898779 C40.030227,331.898779 31.1262657,333.861117 31.1262657,343.335843 C31.1262657,352.038161 39.541694,354.477811 48.0489002,354.477811 C56.9609004,354.477811 65.6729321,352.620314 65.6729321,343.139056 M22.422273,342.658562 C22.422273,327.499972 33.0209429,320.650294 48.0489002,320.650294 C62.4997288,320.650294 74.16741,328.864079 74.16741,343.726066 C74.16741,358.987823 63.5913496,365.814891 48.6471312,365.814891 C33.611135,365.814891 22.422273,357.112573 22.422273,342.658562" id="Fill-17"></path>
                <path d="M22.4159088,388.049086 C22.4159088,383.456843 23.7121876,378.283954 25.3971825,373.97391 C28.2593794,374.672126 31.0150604,375.342875 33.8965173,376.02183 C32.108356,379.833626 30.5377485,384.724148 30.5377485,388.926168 C30.5377485,393.137901 32.3210529,398.020384 37.2616502,398.020384 C48.1425204,398.020384 40.6364969,374.672126 58.837825,374.672126 C69.7089814,374.672126 74.2737584,384.335599 74.2737584,393.818364 C74.2737584,397.926931 73.1709166,402.512643 71.7873819,406.332646 C70.7006179,406.143898 64.7635272,404.773259 63.7735655,404.474981 C65.1731781,401.061447 66.3567442,397.438231 66.3567442,393.724911 C66.3567442,389.806599 64.3686144,385.612618 59.9133679,385.612618 C49.8306973,385.612618 56.3449168,409.075431 38.6612628,409.075431 C26.8775195,409.075431 22.4159088,398.122043 22.4159088,388.049086" id="Fill-18"></path>
                <path d="M65.1683212,442.399844 C65.1683212,431.939846 54.5713261,431.065946 47.7489473,431.065946 L34.0979931,431.065946 C32.108356,433.618476 31.0150604,436.82886 31.1214088,440.0441 C31.2230679,449.550982 39.1466137,451.789156 48.7422586,451.789156 C56.3497737,451.789156 65.1683212,450.60559 65.1683212,442.399844 M22.8027827,440.940609 C22.8027827,437.325432 23.804133,433.995804 25.2956909,430.861121 C21.5274387,430.861121 17.7655507,430.969144 13.7214624,430.969144 L1.83773473,430.969144 L1.2460354,420.707607 C19.4570772,420.707607 37.5535642,420.599584 55.7629312,420.599584 L61.9983,420.599584 C67.8449527,420.599584 71.7873819,420.020613 72.7775111,419.928667 C73.0677502,423.251931 73.2806146,426.584908 73.5804,429.890419 C73.1709166,430.000117 70.802277,430.387158 66.2550852,430.480611 C71.0876593,433.513635 74.0691004,438.494427 74.0691004,444.762119 C74.0691004,458.637159 61.6918155,462.932799 49.9258248,462.932799 C35.1752108,462.932799 22.8027827,456.281415 22.8027827,440.940609" id="Fill-19"></path>
                <path d="M63.4784695,498.308313 C63.7735655,497.332755 63.8896277,496.466894 63.8896277,495.588138 C63.8896277,489.613867 58.9232387,485.902055 53.3894347,485.418379 C51.2125573,485.215228 49.0324978,485.020116 46.6558192,485.020116 L23.6075139,485.020116 L23.6075139,474.471355 L61.2161783,474.471355 C66.3567442,474.471355 70.1089186,473.781346 72.4936361,473.684544 C72.8709637,477.004625 73.2806146,480.42938 73.6674885,483.752644 C72.3839381,483.752644 69.9153142,484.144542 67.1371912,484.144542 C66.5389602,484.144542 65.7504743,484.144542 64.9586389,484.239669 C69.6121792,486.885652 74.16741,491.568166 74.16741,497.237627 C74.16741,498.308313 74.0754646,499.395077 73.8610929,500.270652 C70.4040146,499.678785 66.9484436,499.003179 63.4784695,498.308313" id="Fill-20"></path>
                <path d="M46.6558192,529.304449 C46.6558192,523.444733 44.6966631,515.619496 37.3567777,515.619496 C33.1048493,515.619496 30.3377799,518.355917 30.3377799,522.564302 C30.3377799,525.69731 32.5098004,529.594688 35.1832498,531.36024 C38.2469226,533.298461 43.1002639,533.417705 46.6558192,533.417705 L46.6558192,529.304449 L46.6558192,529.304449 Z M23.012465,546.610775 C22.910806,541.42834 24.3023796,536.341032 30.0314628,534.965703 C24.8780011,532.039027 22.5205825,525.69731 22.5205825,520.018303 C22.5205825,511.509422 26.8775195,505.059514 36.0732272,505.059514 C51.1142478,505.059514 53.6811812,521.966071 53.6811812,533.504794 L56.8577341,533.504794 C62.8802385,533.504794 65.8504586,530.968341 65.8504586,524.910499 C65.8504586,520.410034 64.3686144,515.716299 61.9983,511.914048 L69.9153142,508.968113 C72.9903754,514.152223 74.2737584,520.410034 74.2737584,526.371409 C74.2737584,538.593609 69.1156073,543.964792 56.6577655,543.964792 C50.5240558,543.964792 44.390346,543.774537 38.2469226,543.774537 C34.5930577,543.774537 30.6377327,543.674553 29.9331533,548.061971 C27.6691874,547.488024 25.2956909,547.100983 23.012465,546.610775 L23.012465,546.610775 Z" id="Fill-21"></path>
                <path d="M23.5123865,609.270613 L23.5123865,598.512336 C35.4749962,594.897159 47.7489473,590.888576 60.0084954,588.153997 L60.0084954,588.058702 C48.9390451,585.906109 34.4996051,581.109208 23.5123865,578.080873 L23.5123865,567.63712 C39.8416469,562.938361 56.26436,558.147823 72.6790341,553.455596 C72.9950648,557.069098 73.285304,560.789117 73.5852569,564.396088 C61.2193604,567.529097 48.8358788,570.754051 36.3651412,573.487122 L36.3651412,573.588614 C48.6390923,576.70387 60.8227728,580.135156 72.9950648,583.45842 L72.9950648,594.020077 C60.995275,597.344848 48.8358788,601.240551 36.6714582,604.089685 L36.6714582,604.180123 C48.7422586,607.20829 60.9113686,610.050892 72.9950648,613.075877 L72.9950648,624.01637 C56.4611465,619.045291 39.9302427,614.149746 23.5123865,609.270613" id="Fill-22"></path>
                <path d="M23.610696,661.857326 L55.9563681,661.857326 C61.2193604,661.857326 65.0586232,659.320873 65.0586232,655.220513 C65.0586232,651.194177 61.9046799,647.096998 57.444744,644.842746 C55.8692796,644.062299 54.0827931,643.573766 52.3993055,643.273813 L23.610696,643.273813 L23.610696,632.831568 L61.9046799,632.831568 C66.7404361,632.831568 70.215267,632.055978 72.4855971,631.946447 C72.78555,635.274567 73.2806146,638.591299 73.5804,641.916238 C72.4855971,641.916238 70.9940392,642.112857 69.5170518,642.206477 C68.2303192,642.306461 66.9484436,642.395057 65.7504743,642.506262 C70.7086569,646.318226 74.0691004,651.789226 74.0691004,658.343808 C74.0691004,667.621914 68.4302878,672.318831 59.6263108,672.318831 L23.610696,672.318831 L23.610696,661.857326" id="Fill-23"></path>
                <path d="M23.610696,687.080834 L72.78555,687.080834 L73.4772336,697.631103 L23.610696,697.631103 L23.610696,687.080834 L23.610696,687.080834 Z M80.4076356,692.358397 C80.4076356,688.538561 83.4567378,685.413592 87.3137533,685.413592 C91.180315,685.413592 94.2488447,688.648092 94.2488447,692.448667 C94.2488447,696.363798 91.2819741,699.391965 87.4249586,699.391965 C83.5711252,699.391965 80.4076356,696.273527 80.4076356,692.358397 L80.4076356,692.358397 Z" id="Fill-24"></path>
                <path d="M23.610696,742.608794 C32.1050064,736.162235 40.7235854,729.71082 49.3436717,723.252873 L23.610696,723.252873 L23.610696,712.984804 C43.6984949,712.984804 63.675256,712.88482 83.7518338,712.88482 C89.9935668,712.88482 93.7554549,712.302835 94.9485673,712.302835 C95.132458,715.729264 95.4324108,719.054203 95.7355458,722.564371 C94.8454009,722.675744 90.7885843,723.252873 83.8630392,723.252873 L52.8960449,723.252873 C59.5199624,728.733587 72.9903754,739.864334 72.9903754,739.864334 L72.9903754,752.278631 C72.9903754,752.278631 58.3363962,739.864334 51.1157551,733.91284 C41.9151905,741.041536 32.8097533,748.274905 23.610696,755.505092 L23.610696,742.608794" id="Fill-25"></path>
            </g>
        </g>
    </g>
</svg>